<svg width="40" height="40" viewBox="0 0 40 40" fill="none" xmlns="http://www.w3.org/2000/svg">
<path d="M19.8324 7.84156C16.8094 7.41126 13.8281 6.61475 11.0111 8.54043C8.38066 10.341 6.36535 13.4141 5.59707 16.704C4.51147 21.3519 5.15727 26.6436 8.05498 30.3669C9.64718 32.4085 12.2944 34.5844 14.6604 35.3931C20.7342 37.4745 28.2415 36.4888 32.0522 30.2844C33.1406 28.5144 34.2319 26.1126 34.6299 24.013C35.7461 18.1353 34.4962 11.2474 28.9457 8.71744C26.474 7.59133 23.8324 8.21084 21.2491 8.00636C20.7731 7.96669 20.3027 7.90871 19.8324 7.84156Z" fill="url(#paint0_linear_383_3158)"/>
<path d="M22.8007 4.17969C22.7812 4.10036 22.745 4.03016 22.6921 3.98133C22.5808 3.88673 22.3497 3.79212 22.219 3.74024C22.0213 3.65784 21.8097 3.62427 21.6037 3.62427C21.5258 3.62427 21.4507 3.62733 21.3783 3.63648C21.1 3.6731 20.8606 3.78602 20.7018 4.03322C20.4903 4.35365 20.5265 4.71682 20.4708 5.08913C20.3928 5.62014 20.1646 6.10233 20.0393 6.62113C19.942 7.02092 19.864 7.42681 19.7945 7.83574C19.7416 8.13482 19.697 8.43389 19.6636 8.73602C19.5438 9.85603 19.3768 10.976 19.4215 12.1083C19.4242 12.2639 19.4297 12.4195 19.4381 12.5751C19.441 12.6545 19.4492 12.7308 19.4603 12.8101C19.4771 12.9139 19.4827 13.0329 19.4938 13.152C19.4993 13.1946 19.5021 13.2374 19.5077 13.2801C19.5383 13.4633 19.5968 13.6341 19.7555 13.7288C19.9531 13.8509 20.187 13.9058 20.4207 13.9088C20.4931 13.9088 20.5627 13.8966 20.6351 13.8905L20.8188 13.8783C20.9078 13.8509 20.997 13.8143 21.0916 13.7868C21.2391 13.747 21.3838 13.6646 21.4868 13.5395C21.5787 13.4266 21.5898 13.3106 21.5842 13.1764L21.576 13.0818C21.5648 12.9628 21.5565 12.8406 21.5508 12.7186C21.5397 12.4775 21.5313 12.2303 21.5258 11.9892C21.5091 11.446 21.5175 10.8967 21.562 10.3535C21.5926 10.03 21.6066 9.70039 21.6316 9.37689C21.6622 8.92523 21.7207 8.47662 21.7902 8.02801C21.807 7.9334 21.8153 7.84184 21.832 7.75029C21.9322 7.17656 22.1187 6.66081 22.3191 6.11758C22.411 5.86734 22.45 5.60183 22.5335 5.36074C22.6253 5.11049 22.8286 4.97317 22.8286 4.67409C22.8286 4.53676 22.8397 4.33839 22.8007 4.17969Z" fill="#855C52"/>
<path d="M13.5774 10.5458C13.1659 10.0629 12.1891 10.1178 11.5259 10.4545C10.7062 10.8699 10.0221 11.6541 9.57455 12.5013C9.18975 13.2312 8.67095 14.7311 9.4233 15.4376C9.79139 15.781 10.1708 15.589 10.5245 15.3413C11.167 14.8933 11.4898 14.0321 12.0078 13.4441C12.541 12.8422 14.5299 11.6479 13.5774 10.5458Z" fill="#F1E7E7"/>
<path d="M19.6245 13.056C18.9731 12.9034 18.3385 12.6501 17.7428 12.3297C17.4311 12.1618 16.5292 11.3744 16.4373 12.2015C16.3203 13.1994 17.5758 14.06 18.1993 14.3805C19.2737 14.9359 20.4763 15.1343 21.6315 14.8779C22.745 14.6308 23.6941 14.0295 24.4067 12.9736C24.4986 12.8363 24.5598 12.6745 24.6043 12.5219C24.763 11.9695 24.2118 11.9634 23.9168 12.1191C23.6775 12.2442 23.4715 12.4456 23.2348 12.5708C22.7783 12.8119 22.2996 13.0071 21.8123 13.1109C21.0831 13.2635 20.3455 13.2239 19.6245 13.056Z" fill="#B93221"/>
<path d="M27.0897 3.62188C28.8271 3.57382 31.7402 4.22257 32.9185 5.25777C33.0625 5.38792 33.3385 5.57013 33.3792 5.73032C33.4441 5.99262 33.1945 6.21688 33.0121 6.4091C30.4205 9.1703 25.1123 10.6019 21.7527 8.72578C21.2825 8.46347 21.5344 7.97691 21.6304 7.57445C22.0167 5.9686 23.5021 4.49488 25.3331 3.91222C25.9066 3.73001 26.4993 3.6379 27.0897 3.62188Z" fill="#78CE63"/>
<defs>
<linearGradient id="paint0_linear_383_3158" x1="17.5024" y1="7.5003" x2="27.5024" y2="43.1253" gradientUnits="userSpaceOnUse">
<stop offset="0.22228" stop-color="#E73728"/>
<stop offset="1" stop-color="#FF984E"/>
</linearGradient>
</defs>
</svg>
