<svg width="40" height="40" viewBox="0 0 40 40" fill="none" xmlns="http://www.w3.org/2000/svg">
<path d="M20.0001 1.25L15.9178 5.02094L10.6251 3.7421L8.75007 8.79189L4.06253 10.6774L5.00003 16.1287L1.25 20.1047L5.00003 23.8756L4.06253 29.5321L8.75007 31.4175L10.6251 36.1313L16.2501 35.1885L20.0001 38.75L23.7503 35.0715L29.3753 36.1313L31.2503 30.4748L35.9379 29.5321L35.0004 23.8756L38.7504 20.1047L35.0004 16.0536L35.9379 10.6774L31.2503 8.79189L29.3753 4.07821L23.8811 5.02094L20.0001 1.25Z" fill="url(#paint0_linear_383_3256)"/>
<path d="M26.2659 24.7316C26.2659 25.5813 25.9527 26.4309 25.1918 26.4309C24.431 26.4309 24.1177 25.5813 24.1177 24.7316C24.1177 23.905 24.431 23.0555 25.1918 23.0555C25.9527 23.0555 26.2659 23.905 26.2659 24.7316ZM28.75 24.7316C28.75 22.3896 27.4745 20.7364 25.1918 20.7364C22.9092 20.7364 21.6336 22.3896 21.6336 24.7316C21.6336 27.0738 22.9092 28.75 25.1918 28.75C27.4745 28.75 28.75 27.0738 28.75 24.7316ZM15.8823 15.4321C15.8823 16.2818 15.5691 17.1314 14.8082 17.1314C14.0473 17.1314 13.7341 16.2818 13.7341 15.4321C13.7341 14.6055 14.0473 13.7559 14.8082 13.7559C15.5691 13.7559 15.8823 14.6055 15.8823 15.4321ZM18.3663 15.4321C18.3663 13.09 17.0908 11.4368 14.8082 11.4368C12.5256 11.4368 11.25 13.09 11.25 15.4321C11.25 17.7743 12.5256 19.4505 14.8082 19.4505C17.0908 19.4505 18.3663 17.7743 18.3663 15.4321ZM13.6668 28.1989C14.4277 28.8189 15.3677 28.6811 16.0166 27.8315L26.4898 14.0085C27.1387 13.1589 27.1387 12.2175 26.4675 11.6434C25.729 11.0005 24.7666 11.1612 24.1177 12.0108L13.6444 25.8339C12.9956 26.6834 12.9732 27.6479 13.6668 28.1989Z" fill="url(#paint1_linear_383_3256)"/>
<defs>
<linearGradient id="paint0_linear_383_3256" x1="20.0001" y1="1.25" x2="20.0001" y2="38.75" gradientUnits="userSpaceOnUse">
<stop stop-color="#78CEFF"/>
<stop offset="1" stop-color="#4791BB"/>
</linearGradient>
<linearGradient id="paint1_linear_383_3256" x1="20" y1="11.25" x2="20" y2="28.75" gradientUnits="userSpaceOnUse">
<stop stop-color="white"/>
<stop offset="0.932292" stop-color="#DAEAF2"/>
</linearGradient>
</defs>
</svg>
