<svg width="40" height="40" viewBox="0 0 40 40" fill="none" xmlns="http://www.w3.org/2000/svg">
<path d="M20 38.75C30.3553 38.75 38.75 30.3553 38.75 20C38.75 9.64466 30.3553 1.25 20 1.25C9.64466 1.25 1.25 9.64466 1.25 20C1.25 30.3553 9.64466 38.75 20 38.75Z" fill="url(#paint0_linear_383_3184)"/>
<path d="M20 35C28.2843 35 35 28.2843 35 20C35 11.7157 28.2843 5 20 5C11.7157 5 5 11.7157 5 20C5 28.2843 11.7157 35 20 35Z" fill="#DFF1EF"/>
<path d="M16.9688 20H15.7188V29.2497C16.2188 30.6085 16.7605 29.8159 16.9688 29.2497V20Z" fill="url(#paint1_linear_383_3184)" stroke="url(#paint2_linear_383_3184)"/>
<path d="M20.0979 15C20.7231 18.125 18.2229 20 16.3478 20C14.4726 20 11.9729 17.5 12.5979 15C13.2229 12.5 13.9315 10 16.3478 10C18.764 10 19.4726 11.875 20.0979 15Z" fill="url(#paint3_linear_383_3184)"/>
<path d="M25 12.5V29.375" stroke="url(#paint4_linear_383_3184)" stroke-width="1.5" stroke-linecap="round"/>
<path d="M22.5 12.5V29.375" stroke="url(#paint5_linear_383_3184)" stroke-width="1.5" stroke-linecap="round"/>
<defs>
<linearGradient id="paint0_linear_383_3184" x1="20" y1="1.25" x2="20" y2="38.75" gradientUnits="userSpaceOnUse">
<stop stop-color="#CBDDDB"/>
<stop offset="1" stop-color="#9BC6C0"/>
</linearGradient>
<linearGradient id="paint1_linear_383_3184" x1="16.3438" y1="20" x2="16.3438" y2="30" gradientUnits="userSpaceOnUse">
<stop stop-color="#A3B6BA"/>
<stop offset="1" stop-color="#759BA4"/>
</linearGradient>
<linearGradient id="paint2_linear_383_3184" x1="16.3438" y1="20" x2="16.3438" y2="30" gradientUnits="userSpaceOnUse">
<stop stop-color="#9CB2B7"/>
<stop offset="1" stop-color="#7EAEB9"/>
</linearGradient>
<linearGradient id="paint3_linear_383_3184" x1="16.3479" y1="10" x2="16.3479" y2="20" gradientUnits="userSpaceOnUse">
<stop stop-color="#A3B6BA"/>
<stop offset="1" stop-color="#759BA4"/>
</linearGradient>
<linearGradient id="paint4_linear_383_3184" x1="-nan" y1="-nan" x2="-nan" y2="-nan" gradientUnits="userSpaceOnUse">
<stop stop-color="#BAC6C9"/>
<stop offset="1" stop-color="#80AFB9"/>
</linearGradient>
<linearGradient id="paint5_linear_383_3184" x1="-nan" y1="-nan" x2="-nan" y2="-nan" gradientUnits="userSpaceOnUse">
<stop stop-color="#BAC6C9"/>
<stop offset="1" stop-color="#80AFB9"/>
</linearGradient>
</defs>
</svg>
