<svg width="40" height="40" viewBox="0 0 40 40" fill="none" xmlns="http://www.w3.org/2000/svg">
<path d="M33.6468 20.0971C36.5956 14.1808 30.8456 10.3056 27.6019 9.10754L19.7266 22.9825L19.8872 33.0336C20.1436 30.0298 22.9856 28.546 24.3746 28.1796C29.5763 27.227 32.7236 22.3944 33.6468 20.0971Z" fill="#428151"/>
<path d="M33.6468 20.0971C36.5956 14.1808 30.8456 10.3056 27.6019 9.10754L19.7266 22.9825L19.8872 33.0336C20.1436 30.0298 22.9856 28.546 24.3746 28.1796C29.5763 27.227 32.7236 22.3944 33.6468 20.0971Z" fill="url(#paint0_linear_383_3172)"/>
<path d="M6.34705 20.0971C3.39836 14.1808 9.14835 10.3056 12.3919 9.10754L20.2674 22.9825L20.1067 33.0336C19.8504 30.0298 17.0084 28.546 15.6194 28.1796C10.4176 27.227 7.27041 22.3944 6.34705 20.0971Z" fill="#428151"/>
<path d="M6.34705 20.0971C3.39836 14.1808 9.14835 10.3056 12.3919 9.10754L20.2674 22.9825L20.1067 33.0336C19.8504 30.0298 17.0084 28.546 15.6194 28.1796C10.4176 27.227 7.27041 22.3944 6.34705 20.0971Z" fill="url(#paint1_linear_383_3172)"/>
<path d="M13.3348 24.7268C5.05724 10.5367 12.6621 4.03286 17.4993 2.55472C19.1565 1.84764 21.8188 2.26011 22.9426 2.55472C35.9503 6.6935 28.1161 22.5095 23.3421 30.6392C20.7055 32.413 17.7916 31.3784 16.6643 30.6392C15.7803 28.8655 14.0763 25.9585 13.3348 24.7268Z" fill="url(#paint2_linear_383_3172)"/>
<path fill-rule="evenodd" clip-rule="evenodd" d="M17.4993 2.55473C12.6621 4.03287 5.05724 10.5367 13.3348 24.7268C14.0763 25.9585 15.7803 28.8655 16.6643 30.6393C17.5413 31.2141 19.4991 31.968 21.5668 31.4396C20.7355 31.2438 20.049 30.9201 19.6206 30.6393C18.7366 28.8655 17.0326 25.9585 16.2911 24.7268C8.0136 10.5367 15.6185 4.03287 20.4556 2.55473C20.7573 2.42602 21.0923 2.3344 21.4453 2.27242C20.1933 2.11023 18.6175 2.07763 17.4993 2.55473Z" fill="#509E64"/>
<path d="M21.4766 26.5536C22.7084 24.8291 26.6501 19.163 25.9111 10.2942" stroke="#71E08D" stroke-linecap="round"/>
<path d="M20 12.511V24.3361" stroke="#71E08D" stroke-linecap="round"/>
<path d="M18.6693 38.8511C11.8731 38.2599 14.1104 32.1995 16.0785 29.2433C17.8523 26.8783 17.6974 24.4374 18.2959 23.6819C19.4784 22.1891 20.7594 23.0599 21.2522 23.6819C21.5848 24.1019 22.7303 27.9993 23.4693 29.2433C29.6063 38.8511 22.2402 39.0975 18.6693 38.8511Z" fill="#E3F5B5"/>
<path fill-rule="evenodd" clip-rule="evenodd" d="M21.4903 38.8385C14.8593 38.1789 17.0798 32.1798 19.0348 29.2433C20.152 27.7536 20.504 26.234 20.7612 25.1243C20.9123 24.4721 21.0307 23.9615 21.2522 23.6819C20.7594 23.0599 19.4784 22.1891 18.2959 23.6819C18.0744 23.9615 17.956 24.4721 17.8049 25.1243C17.5478 26.234 17.1958 27.7536 16.0785 29.2433C14.1104 32.1995 11.8731 38.2599 18.6693 38.8511C19.4812 38.9071 20.4893 38.9376 21.4903 38.8385Z" fill="#D1E896"/>
<path d="M19.2609 18.4244C18.2756 18.178 16.3047 17.094 16.3047 14.729" stroke="#71E08D" stroke-linecap="round"/>
<defs>
<linearGradient id="paint0_linear_383_3172" x1="30.1534" y1="9.84816" x2="21.2534" y2="38.75" gradientUnits="userSpaceOnUse">
<stop offset="0.0129694" stop-color="#60B675"/>
<stop offset="1" stop-color="#2B4A33"/>
</linearGradient>
<linearGradient id="paint1_linear_383_3172" x1="9.84054" y1="9.84816" x2="16.8455" y2="33.9803" gradientUnits="userSpaceOnUse">
<stop stop-color="#428151"/>
<stop offset="0.680477" stop-color="#265832"/>
</linearGradient>
<linearGradient id="paint2_linear_383_3172" x1="17.5024" y1="2.49946" x2="23.7524" y2="32.4995" gradientUnits="userSpaceOnUse">
<stop stop-color="#53B96D"/>
<stop offset="1" stop-color="#5CDA7B"/>
</linearGradient>
</defs>
</svg>
