<svg width="40" height="40" viewBox="0 0 40 40" fill="none" xmlns="http://www.w3.org/2000/svg">
<path d="M31.6568 7.86743H5.59375V32.1322H31.6568V7.86743Z" fill="url(#paint0_linear_383_3233)"/>
<path fill-rule="evenodd" clip-rule="evenodd" d="M6.02624 7.86743H3.78125V32.1321H6.02624V7.86743Z" fill="#F6B142"/>
<path d="M32.5788 1.25H2.5C1.80964 1.25 1.25 1.80964 1.25 2.5V6.61764C1.25 7.30799 1.80964 7.86764 2.5 7.86764H32.5788C33.2691 7.86764 33.8288 7.30799 33.8288 6.61764V2.5C33.8288 1.80964 33.2691 1.25 32.5788 1.25Z" fill="url(#paint1_linear_383_3233)"/>
<path fill-rule="evenodd" clip-rule="evenodd" d="M2.5 1.25C1.80965 1.25 1.25 1.80965 1.25 2.5V6.61764C1.25 7.308 1.80965 7.86764 2.5 7.86764H4.74504C4.05469 7.86764 3.49504 7.308 3.49504 6.61764V2.5C3.49504 1.80965 4.05469 1.25 4.74504 1.25H2.5Z" fill="#F6B142"/>
<path fill-rule="evenodd" clip-rule="evenodd" d="M5.9124 32.1326C4.53622 32.1379 3.42226 33.2551 3.42226 34.6325V36.2503C3.42226 37.6309 4.54155 38.7503 5.92226 38.7503H31.3386C31.3354 38.7503 31.332 38.7503 31.3288 38.7503H3.75C2.36929 38.7503 1.25 37.6309 1.25 36.2503V34.6326C1.25 33.2519 2.36929 32.1326 3.75 32.1326H5.9124Z" fill="#F6B142"/>
<path d="M31.3287 32.1326H5.92187C4.54116 32.1326 3.42188 33.2519 3.42188 34.6326V36.2503C3.42188 37.631 4.54116 38.7503 5.92187 38.7503H31.3287C32.7095 38.7503 33.8287 37.631 33.8287 36.2503V34.6326C33.8287 33.2519 32.7095 32.1326 31.3287 32.1326Z" fill="url(#paint2_linear_383_3233)"/>
<path d="M18.6252 29.9262C24.6228 29.9262 29.4848 25.482 29.4848 19.9998C29.4848 14.5175 24.6228 10.0733 18.6252 10.0733C12.6276 10.0733 7.76562 14.5175 7.76562 19.9998C7.76562 25.482 12.6276 29.9262 18.6252 29.9262Z" fill="#E0E0E0"/>
<path d="M19.7111 29.9262C25.1089 29.9262 29.4847 25.482 29.4847 19.9998C29.4847 14.5175 25.1089 10.0733 19.7111 10.0733C14.3133 10.0733 9.9375 14.5175 9.9375 19.9998C9.9375 25.482 14.3133 29.9262 19.7111 29.9262Z" fill="#FCF8F8"/>
<path d="M34.9141 36.5443C35.5138 36.5443 36 36.0505 36 35.4414C36 34.8322 35.5138 34.3384 34.9141 34.3384C34.3143 34.3384 33.8281 34.8322 33.8281 35.4414C33.8281 36.0505 34.3143 36.5443 34.9141 36.5443Z" fill="white"/>
<path d="M18.625 19.8096V26.6278" stroke="#FFCB00" stroke-width="0.7" stroke-linecap="round"/>
<path d="M20.3016 15.2646C20.3016 16.5199 19.4434 17.5374 18.6384 17.5374C17.8334 17.5374 16.9453 16.5199 16.9453 15.2646C16.9453 14.1283 17.8334 12.992 18.6384 12.992C19.4434 12.992 20.3016 14.0095 20.3016 15.2646Z" fill="#FFCB00"/>
<path d="M18.4123 21.4855C19.456 22.4107 19.6951 23.613 19.1259 24.037C18.5565 24.4611 17.0823 24.179 16.0385 23.2537C15.0935 22.416 14.7768 21.1105 15.346 20.6864C15.9154 20.2622 17.3684 20.5602 18.4123 21.4855Z" fill="#F6B142"/>
<path d="M18.8348 21.4855C17.7911 22.4107 17.5518 23.613 18.1212 24.037C18.6904 24.4611 20.1648 24.179 21.2086 23.2537C22.1534 22.416 22.4703 21.1105 21.9009 20.6864C21.3317 20.2622 19.8786 20.5602 18.8348 21.4855Z" fill="#F6B142"/>
<path d="M18.8348 16.9396C17.7911 17.8648 17.5518 19.067 18.1212 19.4911C18.6904 19.9152 20.1648 19.633 21.2086 18.7077C22.1534 17.8701 22.4703 16.5646 21.9009 16.1405C21.3317 15.7163 19.8786 16.0143 18.8348 16.9396Z" fill="#F6B142"/>
<path d="M18.4123 16.9396C19.456 17.8648 19.6951 19.067 19.1259 19.4911C18.5565 19.9152 17.0823 19.633 16.0385 18.7077C15.0935 17.8701 14.7768 16.5646 15.346 16.1405C15.9154 15.7163 17.3684 16.0143 18.4123 16.9396Z" fill="#F6B142"/>
<path d="M18.4123 19.2126C19.456 20.1379 19.6951 21.34 19.1259 21.7641C18.5565 22.1881 17.0823 21.906 16.0385 20.9807C15.0935 20.1431 14.7768 18.8375 15.346 18.4135C15.9154 17.9894 17.3684 18.2874 18.4123 19.2126Z" fill="#FFCB00"/>
<path d="M18.8348 19.2126C17.7911 20.1379 17.5518 21.34 18.1212 21.7641C18.6904 22.1881 20.1648 21.906 21.2086 20.9807C22.1534 20.1431 22.4703 18.8375 21.9009 18.4135C21.3317 17.9894 19.8786 18.2874 18.8348 19.2126Z" fill="#FFCB00"/>
<path d="M26.0184 32.3263L18.8438 38.75H39.9961L33.6162 33.3969C30.5771 29.9708 27.2846 31.2555 26.0184 32.3263Z" fill="#FAE4C8"/>
<path fill-rule="evenodd" clip-rule="evenodd" d="M18.8438 38.75L26.0184 32.3262C26.9446 31.543 28.955 30.6454 31.1572 31.5606C30.6236 31.778 30.1809 32.0587 29.8646 32.3262L22.69 38.75H18.8438Z" fill="#EBD7BD"/>
<path d="M29.4224 34.9627C29.9534 34.9627 30.3839 34.5387 30.3839 34.0157C30.3839 33.4928 29.9534 33.0688 29.4224 33.0688C28.8914 33.0688 28.4609 33.4928 28.4609 34.0157C28.4609 34.5387 28.8914 34.9627 29.4224 34.9627Z" fill="white"/>
<path d="M33.2662 36.8561C33.7972 36.8561 34.2276 36.4321 34.2276 35.9091C34.2276 35.3861 33.7972 34.9622 33.2662 34.9622C32.7352 34.9622 32.3047 35.3861 32.3047 35.9091C32.3047 36.4321 32.7352 36.8561 33.2662 36.8561Z" fill="white"/>
<path d="M25.5787 36.8561C26.1097 36.8561 26.5401 36.4321 26.5401 35.9091C26.5401 35.3861 26.1097 34.9622 25.5787 34.9622C25.0477 34.9622 24.6172 35.3861 24.6172 35.9091C24.6172 36.4321 25.0477 36.8561 25.5787 36.8561Z" fill="#F6B142"/>
<defs>
<linearGradient id="paint0_linear_383_3233" x1="18.6253" y1="7.86743" x2="18.6253" y2="32.1321" gradientUnits="userSpaceOnUse">
<stop stop-color="#FFEC43"/>
<stop offset="1" stop-color="#FFB45B"/>
</linearGradient>
<linearGradient id="paint1_linear_383_3233" x1="3.70735" y1="5.41679" x2="33.5436" y2="5.41679" gradientUnits="userSpaceOnUse">
<stop stop-color="#F7D733"/>
<stop offset="1" stop-color="#F6B142"/>
</linearGradient>
<linearGradient id="paint2_linear_383_3233" x1="3.70741" y1="35.7199" x2="33.5437" y2="35.7199" gradientUnits="userSpaceOnUse">
<stop stop-color="#F7D635"/>
<stop offset="1" stop-color="#F7B342"/>
</linearGradient>
</defs>
</svg>
