<svg width="32" height="32" viewBox="0 0 32 32" fill="none" xmlns="http://www.w3.org/2000/svg">
<path fill-rule="evenodd" clip-rule="evenodd" d="M16 19C17.6569 19 19 17.6569 19 16C19 14.3431 17.6569 13 16 13C14.3431 13 13 14.3431 13 16C13 17.6569 14.3431 19 16 19Z" stroke="#37689B" stroke-linecap="round" stroke-linejoin="round"/>
<path fill-rule="evenodd" clip-rule="evenodd" d="M23.4 19C23.1277 19.6171 23.2583 20.3378 23.73 20.82L23.79 20.88C24.1656 21.2551 24.3766 21.7642 24.3766 22.295C24.3766 22.8258 24.1656 23.3349 23.79 23.71C23.4149 24.0856 22.9058 24.2966 22.375 24.2966C21.8442 24.2966 21.3351 24.0856 20.96 23.71L20.9 23.65C20.4178 23.1783 19.6971 23.0477 19.08 23.32C18.4755 23.5791 18.0826 24.1724 18.08 24.83V25C18.08 26.1046 17.1846 27 16.08 27C14.9754 27 14.08 26.1046 14.08 25V24.91C14.0642 24.2327 13.6359 23.6339 13 23.4C12.3829 23.1277 11.6622 23.2583 11.18 23.73L11.12 23.79C10.7449 24.1656 10.2358 24.3766 9.705 24.3766C9.17418 24.3766 8.66514 24.1656 8.29 23.79C7.91445 23.4149 7.70343 22.9058 7.70343 22.375C7.70343 21.8442 7.91445 21.3351 8.29 20.96L8.35 20.9C8.82167 20.4178 8.95235 19.6971 8.68 19.08C8.42093 18.4755 7.82764 18.0826 7.17 18.08H7C5.89543 18.08 5 17.1846 5 16.08C5 14.9754 5.89543 14.08 7 14.08H7.09C7.76733 14.0642 8.36613 13.6359 8.6 13C8.87235 12.3829 8.74167 11.6622 8.27 11.18L8.21 11.12C7.83445 10.7449 7.62343 10.2358 7.62343 9.705C7.62343 9.17418 7.83445 8.66514 8.21 8.29C8.58514 7.91445 9.09418 7.70343 9.625 7.70343C10.1558 7.70343 10.6649 7.91445 11.04 8.29L11.1 8.35C11.5822 8.82167 12.3029 8.95235 12.92 8.68H13C13.6045 8.42093 13.9974 7.82764 14 7.17V7C14 5.89543 14.8954 5 16 5C17.1046 5 18 5.89543 18 7V7.09C18.0026 7.74764 18.3955 8.34093 19 8.6C19.6171 8.87235 20.3378 8.74167 20.82 8.27L20.88 8.21C21.2551 7.83445 21.7642 7.62343 22.295 7.62343C22.8258 7.62343 23.3349 7.83445 23.71 8.21C24.0856 8.58514 24.2966 9.09418 24.2966 9.625C24.2966 10.1558 24.0856 10.6649 23.71 11.04L23.65 11.1C23.1783 11.5822 23.0477 12.3029 23.32 12.92V13C23.5791 13.6045 24.1724 13.9974 24.83 14H25C26.1046 14 27 14.8954 27 16C27 17.1046 26.1046 18 25 18H24.91C24.2524 18.0026 23.6591 18.3955 23.4 19Z" stroke="#37689B" stroke-linecap="round" stroke-linejoin="round"/>
</svg>
