<svg width="40" height="40" viewBox="0 0 40 40" fill="none" xmlns="http://www.w3.org/2000/svg">
<path d="M14.135 15.2103C14.311 14.1883 15.1054 13.4867 15.9107 13.6571C16.7134 13.8216 17.2275 14.7946 17.0515 15.8196C16.8784 16.8475 16.084 17.5403 15.284 17.3786C14.4786 17.2083 13.9619 16.2411 14.135 15.2103ZM22.5465 18.2131C21.7327 18.2361 21.0539 17.4191 21.0429 16.374C21.0291 15.3316 21.686 14.4597 22.5052 14.4366C23.3271 14.402 24.0006 15.2306 24.0144 16.2728C24.0281 17.3151 23.3684 18.1871 22.5465 18.2131Z" fill="#2F2F2F"/>
<path d="M35.9639 29.6749C34.9275 29.9839 33.9462 30.4574 32.8467 30.4025C31.8076 30.3505 30.8592 29.851 30.0484 29.1985C29.7185 28.9329 29.111 28.5374 28.9846 28.0927C28.8471 27.6135 29.2842 27.3131 29.647 27.1689C30.1694 26.961 30.6806 26.7386 31.1754 26.4672C32.1712 25.9212 33.09 25.2322 33.905 24.4202C36.0216 22.3212 37.3905 19.4167 37.4922 16.3419C37.5417 14.8925 37.3492 13.3882 37.0854 11.9677C36.8215 10.5444 36.28 9.17872 35.524 7.9661C34.8589 6.90074 33.9297 6.13562 34.2294 4.6776C34.342 4.14057 34.5895 4.01642 34.419 3.39856C34.2926 2.95105 34.1496 2.65945 33.6659 2.60747C33.4706 2.5841 33.2732 2.59189 33.0804 2.63057C32.0605 2.85289 31.6152 4.01065 31.596 5.12511C31.5712 6.90651 32.4234 8.41362 32.8989 10.0651C33.3607 11.6733 33.6989 13.4056 33.4954 15.0887C33.3002 16.6854 32.6185 18.3109 31.6976 19.587C31.2166 20.2569 30.5844 20.9296 29.878 21.3367C28.8059 21.9545 28.5722 21.354 29.1935 20.4359C30.1941 18.9721 30.4772 17.1359 30.6366 15.3832C30.917 12.3055 30.4305 8.9131 28.465 6.49364C27.6596 5.50044 26.4886 4.40909 25.3671 3.82876C22.6705 2.44291 18.9844 1.91166 16.2135 3.36392C14.1464 4.44374 12.3899 6.2309 11.3811 8.39052C10.6856 9.87454 10.1166 11.6502 9.9022 13.2987C9.68229 14.9791 9.82249 16.7114 10.2678 18.3369C10.6719 19.8065 11.3866 20.7275 12.1617 21.969C12.4449 22.4251 12.1865 22.5522 11.7274 22.3876C11.4305 22.2807 11.1282 22.122 10.856 21.9604C10.3008 21.6225 9.82524 21.1547 9.38267 20.6697C8.66247 19.8815 8.13195 18.9086 7.74986 17.898C7.37877 16.9106 7.13687 15.8539 7.09839 14.7914C7.04341 13.1832 7.28256 11.5953 7.72512 10.068C7.94779 9.29132 8.1402 8.49446 8.2529 7.71204C8.29139 7.45507 8.36835 7.22987 8.36835 6.92382C8.3656 6.32906 8.3711 5.76317 8.25565 5.22039C8.08247 4.42064 7.79935 3.42455 7.10389 3.19935C6.86199 3.1214 6.56786 3.13584 6.21052 3.28885C5.58379 3.55736 5.62227 3.95869 5.74871 4.56211C5.86416 5.10779 5.90815 5.5784 5.77346 6.12696C5.64426 6.65244 5.46009 7.19234 5.20445 7.69182C4.4925 9.06612 3.83004 10.4144 3.53866 11.9677C3.27751 13.3882 3.08785 14.8925 3.13457 16.3419C3.29676 21.2991 6.65309 25.552 10.9962 27.1746C10.6306 27.5615 10.2485 27.9137 9.85822 28.1302C8.80816 28.7164 7.35404 28.6152 6.46616 27.8126C5.5398 26.9782 4.40729 25.9534 3.09885 26.1092C2.75799 26.1496 2.52709 26.499 2.50235 26.8396C2.46661 27.3131 2.84595 27.6336 3.15657 27.908C3.76131 28.445 4.42652 28.9357 4.98179 29.5219C5.80919 30.3939 6.53762 31.3581 7.66465 31.8085C9.7785 32.6516 11.4635 31.4736 13.2942 30.5469C13.6516 30.365 14.2701 30.3361 14.38 30.8326C14.6494 32.0424 13.2502 33.0905 12.5164 33.7776C12.027 34.2337 11.4141 34.5774 10.7488 34.5745C10.1826 34.5716 9.40741 34.3955 9.29471 35.1519C9.193 35.8477 9.37992 36.4339 9.95442 36.8236C10.3008 37.0575 10.7131 37.1787 11.1172 37.2105C11.8071 37.2682 12.4339 37.274 13.0881 37.0257C13.8632 36.7312 14.589 36.2837 15.2954 35.842C16.5021 35.0884 17.5192 34.075 18.5115 33.0385C19.273 32.2502 20.246 31.0867 21.3594 32.0049C22.676 33.0905 23.223 34.9354 24.5755 36.0527C25.73 37.0084 26.7387 37.8861 28.3111 37.3231C28.8664 37.1239 29.6552 36.6965 29.7735 36.0527C29.9165 35.2587 29.254 35.1836 28.7097 35.0884C26.978 34.7766 26.2275 33.3387 25.6145 31.7479C25.4469 31.312 25.3341 30.1311 26.1422 30.4574C26.4474 30.5815 26.6124 31.0376 26.8102 31.2917C27.0714 31.6295 27.393 31.924 27.7201 32.1896C28.3744 32.718 29.1302 33.1712 29.9246 33.4225C32.1265 34.1211 34.8341 33.3127 36.291 31.4505C36.4861 31.2022 36.8572 30.6421 36.8682 30.3072C36.8847 29.776 36.3899 29.5479 35.9639 29.6749Z" fill="url(#paint0_linear_382_2834)"/>
<path d="M19.9957 19.7653C19.5245 19.965 18.9842 20.0398 18.4493 19.9816C18.3079 19.9677 18.1638 19.9428 18.0225 19.9095C17.2882 19.7348 16.5925 19.3191 16.1353 18.6538C15.9385 18.3711 15.8055 18.0717 15.7224 17.7696C15.6393 17.4536 15.6115 17.1348 15.6309 16.8243C15.7197 15.2942 16.9805 13.9858 18.5795 14.1882C20.1037 14.3822 21.3618 15.7737 21.4533 17.3122C21.5225 18.579 20.8769 19.394 19.9957 19.7653Z" fill="#BF4E47"/>
<path d="M19.9602 18.5393C19.493 18.7472 18.957 18.8252 18.4264 18.7646C18.2863 18.7501 18.1433 18.7241 18.0031 18.6895C17.2746 18.5076 16.5847 18.0745 16.1311 17.3816C15.936 17.0871 15.804 16.7752 15.7216 16.4606C15.6391 16.1315 15.6116 15.7993 15.6309 15.476C15.7189 13.8823 16.9695 12.5196 18.5556 12.7303C20.0675 12.9325 21.3155 14.3817 21.4061 15.9842C21.4749 17.3036 20.8344 18.1525 19.9602 18.5393Z" fill="#EDACA8"/>
<path d="M18.5301 14.0309C17.5102 13.8865 16.7461 15.0385 17.0155 16.153C17.0595 16.3349 17.1308 16.511 17.2353 16.6784C18.0352 17.9747 20.1491 17.6947 20.0557 15.8844C20.009 14.9721 19.3382 14.1464 18.5301 14.0309Z" fill="#2F2F2F"/>
<path d="M31.3363 25.2425C31.2098 25.6323 30.7591 25.8863 30.4292 25.9903C30.2588 26.0451 29.6788 26.1808 29.8135 25.7621C29.9427 25.3609 30.443 25.0865 30.7893 24.9769C31.012 24.9046 31.4821 24.8036 31.3363 25.2425ZM33.4255 22.8316C33.5217 22.8259 33.6123 22.8605 33.6591 22.9615C33.8433 23.3455 33.3457 23.8566 33.1066 24.0414C32.6173 24.4196 32.227 24.0096 32.6146 23.4466C32.7162 23.2994 32.8207 23.1694 32.9555 23.0481C33.0543 22.9615 33.2551 22.8403 33.4255 22.8316ZM35.4293 21.1801C35.248 21.6681 34.7312 22.1994 34.624 21.8298C34.5415 21.541 34.701 21.1715 34.8493 20.9463C34.9538 20.7961 35.1627 20.4699 35.3661 20.6114C35.5256 20.7183 35.5173 20.9434 35.4293 21.1801ZM36.452 18.8704C36.43 19.0205 36.3915 19.1649 36.353 19.2429C36.2677 19.4103 35.9763 19.803 35.8307 19.5575C35.6905 19.3295 35.7785 18.8993 35.8885 18.6799C35.9653 18.5298 36.0478 18.3911 36.1716 18.3131C36.4547 18.1458 36.496 18.5298 36.452 18.8704ZM36.8395 16.2778C36.856 16.4221 36.8532 16.5606 36.8312 16.6415C36.7901 16.8176 36.6141 17.2508 36.4272 17.0659C36.254 16.8985 36.2402 16.4856 36.2952 16.2546C36.331 16.0988 36.375 15.9515 36.4712 15.8504C36.6856 15.6224 36.8065 15.9601 36.8395 16.2778ZM36.878 14.1036C36.8945 14.2769 36.889 14.4386 36.8752 14.4876C36.8505 14.6031 36.7543 14.8313 36.6443 14.8716C36.4987 14.9236 36.4355 14.6869 36.419 14.5743C36.3997 14.453 36.4135 14.3115 36.4135 14.1874C36.4162 14.0199 36.474 13.6965 36.6581 13.6359C36.7982 13.5955 36.856 13.8583 36.878 14.1036ZM7.22359 23.7295C7.24283 24.1453 7.61118 24.5323 7.90805 24.7314C8.05923 24.8383 8.58975 25.1414 8.57327 24.6939C8.55403 24.2636 8.13895 23.845 7.83108 23.6343C7.63317 23.5015 7.20434 23.259 7.22359 23.7295ZM5.63477 20.776C5.53305 20.7384 5.43135 20.7471 5.35438 20.8366C5.05202 21.1773 5.4176 21.8644 5.61552 22.1359C6.0141 22.6844 6.53638 22.3841 6.29723 21.6768C6.234 21.4891 6.16529 21.3216 6.05808 21.1541C5.98662 21.0271 5.81069 20.8395 5.63477 20.776ZM4.03219 18.4229C4.08168 18.9859 4.46377 19.7048 4.68367 19.3526C4.8486 19.0783 4.79637 18.6481 4.70292 18.3623C4.63969 18.1718 4.51599 17.7675 4.26309 17.8513C4.06793 17.9119 4.0102 18.1486 4.03219 18.4229ZM3.63912 15.6945C3.61987 15.8591 3.61438 16.0208 3.63362 16.1131C3.6721 16.3153 3.86177 16.8148 4.08443 16.6098C4.29883 16.4191 4.33182 15.9428 4.28234 15.683C4.2466 15.501 4.19988 15.3308 4.09267 15.2124C3.84528 14.9439 3.69134 15.3279 3.63912 15.6945ZM3.99097 12.8824C3.93324 13.0268 3.89475 13.1711 3.892 13.2635C3.88375 13.4598 3.94148 13.9621 4.18888 13.8351C4.41978 13.7168 4.54898 13.2924 4.56272 13.0383C4.56822 12.865 4.56822 12.6976 4.49675 12.5619C4.33457 12.2501 4.11192 12.5619 3.99097 12.8824ZM4.57647 10.613C4.51049 10.7892 4.46652 10.9595 4.46652 11.0144C4.45827 11.1414 4.49125 11.4128 4.5957 11.4879C4.73315 11.586 4.86509 11.3637 4.91732 11.2511C4.97229 11.1327 4.99978 10.9797 5.03552 10.8498C5.08225 10.6766 5.11249 10.3185 4.93657 10.2002C4.80737 10.1107 4.66993 10.3647 4.57647 10.613ZM12.0505 30.5953C12.5728 30.4654 13.1941 29.963 12.834 29.7898C12.5536 29.6511 12.1522 29.7725 11.8994 29.9081C11.7289 30.0005 11.3633 30.1883 11.4788 30.4365C11.5667 30.63 11.7976 30.6589 12.0505 30.5953ZM10.1593 31.369C10.3408 31.3546 11.2066 31.1611 10.8685 30.8031C10.7036 30.63 10.3078 30.7484 10.1209 30.8263C9.99442 30.8783 9.84323 30.9389 9.76075 31.0544C9.62882 31.2449 9.75802 31.3778 9.95593 31.3749C10.0192 31.3749 10.0879 31.3749 10.1593 31.369ZM8.09497 31.346C8.15819 31.3691 8.21317 31.3864 8.24615 31.395C8.40009 31.4355 8.93337 31.5971 9.01583 31.3778C9.13403 31.0775 8.54578 30.9938 8.38909 30.9821C8.27364 30.9764 7.92729 30.9649 7.85857 31.089C7.79259 31.2045 7.95753 31.2911 8.09497 31.346ZM34.5112 32.2353C34.8521 32.1833 35.2617 31.8744 35.2755 31.577C35.3002 31.0024 34.5992 31.2276 34.3353 31.4038C34.1676 31.5163 34.0412 31.6895 34.0605 31.909C34.0852 32.1861 34.2831 32.2699 34.5112 32.2353ZM32.7492 32.9975C32.9691 32.9975 33.2248 32.8791 33.4007 32.7434C33.6288 32.5644 33.5931 32.3219 33.3402 32.2035C33.1643 32.1198 32.939 32.1804 32.774 32.2525C32.6036 32.3276 32.4001 32.446 32.3837 32.6568C32.3617 32.9109 32.5348 32.9975 32.7492 32.9975ZM30.586 33.009C30.8003 33.1706 31.4078 33.1505 31.5535 33.0725C31.8008 32.9398 31.5892 32.7145 31.4133 32.6453C31.2098 32.5644 30.9625 32.5816 30.7563 32.6394C30.6821 32.6625 30.5722 32.6971 30.5365 32.7751C30.4842 32.8791 30.5117 32.9541 30.586 33.009ZM10.338 36.4679C10.2006 36.3784 10.0192 36.2023 10.0576 36.0088C10.1044 35.7691 10.3215 35.6854 10.5332 35.697C10.885 35.7171 11.5365 36.208 11.0335 36.5574C10.8603 36.6786 10.4974 36.5718 10.338 36.4679ZM11.7647 36.7884C11.744 36.7821 11.7247 36.7715 11.7081 36.7571C11.6916 36.7428 11.6781 36.7249 11.6685 36.7046C11.4898 36.3524 12.0203 36.4708 12.177 36.5228C12.6471 36.6815 12.3914 36.8663 12.0066 36.8173C11.9351 36.8085 11.8416 36.8173 11.7647 36.7884ZM6.12955 4.47775C6.14055 4.34494 6.19553 4.22945 6.33022 4.20635C6.42643 4.19193 6.46492 4.2179 6.54188 4.29009C6.72605 4.46332 6.83325 4.75782 6.79477 5.01478C6.76453 5.21688 6.60785 5.38433 6.40993 5.28328C6.20103 5.17645 6.11032 4.70295 6.12955 4.47775ZM6.33022 6.10902C6.39894 6.01952 6.47865 5.9762 6.57212 6.03684C6.8305 6.21295 6.4704 6.89145 6.22302 6.88857C6.07183 6.88568 6.08008 6.79905 6.10757 6.67202C6.1268 6.57097 6.20652 6.26782 6.33022 6.10902ZM3.42745 27.4858C3.3065 27.1971 3.49892 26.9459 3.7793 26.9459C3.95523 26.9459 4.04594 26.995 4.17513 27.1076C4.28234 27.2 4.31808 27.2808 4.33457 27.428C4.3648 27.6995 4.23835 27.9015 3.97447 27.8698C3.75457 27.8438 3.52367 27.6965 3.42745 27.4858ZM4.66718 28.2855C4.61495 28.0921 4.67268 27.9103 4.94755 27.9564C5.15097 27.991 5.2994 28.2076 5.33514 28.4126C5.38187 28.6955 5.16472 28.7764 4.94205 28.6638C4.81837 28.6003 4.71115 28.4385 4.66718 28.2855ZM33.912 4.1515C33.8982 4.01869 33.8406 3.9032 33.7058 3.88299C33.6096 3.86855 33.5711 3.89743 33.4942 3.97249C33.3127 4.1515 33.2111 4.44599 33.2551 4.70295C33.288 4.90507 33.4502 5.06963 33.6453 4.9628C33.8542 4.8502 33.9367 4.3767 33.912 4.1515ZM33.7718 5.77699C33.6041 5.60665 33.4777 5.81742 33.5217 6.06572C33.5492 6.22739 33.6013 6.40929 33.7471 6.49302C33.8845 6.57097 34.0467 6.54788 34.0302 6.35154C34.0192 6.2014 33.912 5.97332 33.8296 5.84917C33.8076 5.82319 33.7911 5.7972 33.7718 5.77699ZM28.0625 36.875C28.178 36.8431 28.2686 36.8028 28.3126 36.7566C28.4418 36.6266 28.5188 36.4188 28.3098 36.3235C28.1285 36.2398 27.8783 36.2744 27.675 36.3206C27.5237 36.3553 27.2158 36.465 27.2791 36.6786C27.3533 36.9298 27.8893 36.9211 28.0625 36.875ZM26.3555 36.7046C26.405 36.7161 26.4572 36.7161 26.504 36.6873C26.897 36.4563 26.295 36.2195 26.1081 36.1676C25.5418 36.0116 25.6847 36.3668 26.0998 36.5718C26.1741 36.6094 26.2647 36.6786 26.3555 36.7046Z" fill="#F1C8C6"/>
<path d="M14.1905 11.3701C14.3664 10.348 15.1608 9.64641 15.9662 9.81676C16.7689 9.98132 17.2829 10.9543 17.107 11.9793C16.9338 13.0071 16.122 12.5942 15.3222 12.4325C14.5167 12.2622 14.0173 12.4008 14.1905 11.3701ZM22.5607 13.3071C21.747 13.3301 21.1102 13.4371 21.0983 12.5336C21.0845 11.4913 21.7415 10.6194 22.5607 10.5963C23.3825 10.5616 24.056 11.3903 24.0698 12.4325C24.0835 13.4749 23.3825 13.2811 22.5607 13.3071Z" fill="#2F2F2F"/>
<defs>
<linearGradient id="paint0_linear_382_2834" x1="13.125" y1="5" x2="30" y2="41.25" gradientUnits="userSpaceOnUse">
<stop offset="0.138882" stop-color="#FF7E35"/>
<stop offset="1" stop-color="#FF2E00"/>
</linearGradient>
</defs>
</svg>
