<svg width="40" height="40" viewBox="0 0 40 40" fill="none" xmlns="http://www.w3.org/2000/svg">
<path d="M4.36319 24.6882C3.75009 21.5295 3.75 18.9722 3.75 18.9722C21.8981 32.1123 31.7491 27.2129 35.0191 22.5802L34.1379 28.4787C25.5544 36.0594 4.9763 27.8469 4.36319 24.6882Z" fill="#E17E5F" stroke="#D87F63" stroke-linecap="round" stroke-linejoin="round"/>
<path d="M4.22952 17.2829C15.775 1.40786 34.8971 11.8709 33.0931 15.4789C32.2914 17.0824 31.65 20.6503 35.4985 22.0935C34.6966 26.2538 28.2825 32.6048 9.04012 24.726C6.63482 23.648 2.30527 20.6503 4.22952 17.2829Z" fill="#FCCBC4" stroke="#FCCBC4" stroke-linecap="round" stroke-linejoin="round"/>
<path d="M6.15741 17.1686C16.2164 3.61696 32.3836 12.886 30.8118 15.9659C30.1133 17.3347 29.8641 21.3485 33.2171 22.5805C32.5186 26.132 26.0013 29.1951 9.76554 23.1819C7.6699 22.2616 4.48091 20.0431 6.15741 17.1686Z" fill="url(#paint0_linear_382_2732)" stroke="url(#paint1_linear_382_2732)" stroke-linecap="round" stroke-linejoin="round"/>
<path d="M16.0288 16.6348C17.6297 16.1938 18.7129 15.0576 18.4483 14.097C18.1837 13.1365 16.6714 12.7154 15.0705 13.1565C13.4696 13.5975 12.3864 14.7337 12.651 15.6943C12.9157 16.6548 14.428 17.0759 16.0288 16.6348Z" fill="#F2E3E1"/>
<defs>
<linearGradient id="paint0_linear_382_2732" x1="19.4523" y1="10.0037" x2="19.4523" y2="26.5929" gradientUnits="userSpaceOnUse">
<stop stop-color="#EA2F45"/>
<stop offset="0.927083" stop-color="#FF7347"/>
</linearGradient>
<linearGradient id="paint1_linear_382_2732" x1="19.4523" y1="10.0037" x2="19.4523" y2="26.5929" gradientUnits="userSpaceOnUse">
<stop stop-color="#ED3746"/>
<stop offset="1" stop-color="#FE6E48"/>
</linearGradient>
</defs>
</svg>
