<svg width="40" height="40" viewBox="0 0 40 40" fill="none" xmlns="http://www.w3.org/2000/svg">
<path d="M2.71094 3.125C8.12761 4.79166 22.586 7.125 37.086 3.125" stroke="url(#paint0_linear_383_3215)" stroke-width="2" stroke-linecap="round"/>
<path d="M11.25 6.25V11.25" stroke="#4F4F4F" stroke-width="2" stroke-linecap="round"/>
<path d="M28.75 6.25V11.25" stroke="#4F4F4F" stroke-width="2" stroke-linecap="round"/>
<path d="M10.2357 28.924C10.7343 28.2261 11.7715 28.2261 12.2701 28.924L16.091 34.2735C16.682 35.1007 16.0907 36.25 15.0739 36.25H7.43189C6.41518 36.25 5.82377 35.1007 6.41473 34.2735L10.2357 28.924Z" fill="#4D4238"/>
<path fill-rule="evenodd" clip-rule="evenodd" d="M11.25 33.75C7.10786 33.75 3.75 27.8737 3.75 20.625C3.75 13.3763 7.10786 7.5 11.25 7.5V33.75Z" fill="#B7A594"/>
<path fill-rule="evenodd" clip-rule="evenodd" d="M11.25 33.75C15.3921 33.75 18.75 27.8737 18.75 20.625C18.75 13.3763 15.3921 7.5 11.25 7.5V33.75Z" fill="#7C7167"/>
<path d="M13.75 12.5C14.4404 12.5 15 11.9404 15 11.25C15 10.5596 14.4404 10 13.75 10C13.0596 10 12.5 10.5596 12.5 11.25C12.5 11.9404 13.0596 12.5 13.75 12.5Z" fill="#282828"/>
<path fill-rule="evenodd" clip-rule="evenodd" d="M4.82738 13.75C4.14354 15.7291 3.75 18.0499 3.75 20.5315C3.75 27.7801 7.10786 33.6565 11.25 33.6565V16.1565C8.71161 16.1565 6.42569 15.23 4.82738 13.75Z" fill="#C6B5A6"/>
<path fill-rule="evenodd" clip-rule="evenodd" d="M17.6726 13.75C18.3565 15.7291 18.75 18.0499 18.75 20.5315C18.75 27.7801 15.3921 33.6565 11.25 33.6565V16.1565C13.7884 16.1565 16.0744 15.23 17.6726 13.75Z" fill="#95887B"/>
<path d="M11.25 21.25C11.6595 19.5834 11.4206 18.0555 11.25 17.5H12.2739C12.6834 18.8334 12.4445 20.5555 12.2739 21.25H11.25Z" stroke="#54473A" stroke-linecap="round" stroke-linejoin="round"/>
<path d="M27.7358 28.924C28.2343 28.2261 29.2715 28.2261 29.77 28.924L33.591 34.2735C34.182 35.1007 33.5906 36.25 32.5739 36.25H24.9319C23.9151 36.25 23.3238 35.1007 23.9148 34.2735L27.7358 28.924Z" fill="#4D4238"/>
<path fill-rule="evenodd" clip-rule="evenodd" d="M28.75 33.75C24.6079 33.75 21.25 27.8737 21.25 20.625C21.25 13.3763 24.6079 7.5 28.75 7.5V33.75Z" fill="#B7A594"/>
<path fill-rule="evenodd" clip-rule="evenodd" d="M28.75 33.75C32.8921 33.75 36.25 27.8737 36.25 20.625C36.25 13.3763 32.8921 7.5 28.75 7.5V33.75Z" fill="#7C7167"/>
<path d="M31.25 12.5C31.9404 12.5 32.5 11.9404 32.5 11.25C32.5 10.5596 31.9404 10 31.25 10C30.5596 10 30 10.5596 30 11.25C30 11.9404 30.5596 12.5 31.25 12.5Z" fill="#282828"/>
<path fill-rule="evenodd" clip-rule="evenodd" d="M22.3274 13.75C21.6435 15.7291 21.25 18.0499 21.25 20.5315C21.25 27.7801 24.6079 33.6565 28.75 33.6565V16.1565C26.2116 16.1565 23.9256 15.23 22.3274 13.75Z" fill="#C6B5A6"/>
<path fill-rule="evenodd" clip-rule="evenodd" d="M35.1726 13.75C35.8565 15.7291 36.25 18.0499 36.25 20.5315C36.25 27.7801 32.8921 33.6565 28.75 33.6565V16.1565C31.2884 16.1565 33.5744 15.23 35.1726 13.75Z" fill="#95887B"/>
<path d="M28.75 21.25C29.1595 19.5834 28.9206 18.0555 28.75 17.5H29.7739C30.1834 18.8334 29.9445 20.5555 29.7739 21.25H28.75Z" stroke="#54473A" stroke-linecap="round" stroke-linejoin="round"/>
<defs>
<linearGradient id="paint0_linear_383_3215" x1="19.9986" y1="1.25" x2="19.9986" y2="6.875" gradientUnits="userSpaceOnUse">
<stop stop-color="#989898"/>
<stop offset="1" stop-color="#494949" stop-opacity="0.92"/>
</linearGradient>
</defs>
</svg>
