<svg width="40" height="40" viewBox="0 0 40 40" fill="none" xmlns="http://www.w3.org/2000/svg">
<path d="M16.7598 5.46009C16.0307 6.43168 14.5593 8.49918 14.5078 8.99652L27.2401 13.4598C30.0879 10.2365 29.1852 8.84424 28.3778 8.55101C23.5078 7.04023 19.8897 5.57549 18.6893 5.03198C17.7463 4.43142 17.0101 5.06716 16.7598 5.46009Z" fill="#F47D40"/>
<path d="M38.75 17.5882C36.25 13.8379 32.0834 18.8382 30 21.9632C31.5 26.9633 34.375 28.2132 35.625 28.2131C39.625 28.2131 38.125 24.0464 36.875 21.9631C39.375 20.4631 39.375 18.8379 38.75 17.5882Z" fill="#F47D40"/>
<path d="M35 20.625C33.125 20.625 31.4582 21.875 30 22.5C30.8332 23.3334 32.9999 24.5001 34.9999 25.0001" stroke="#D75817" stroke-linecap="round" stroke-linejoin="round"/>
<path d="M26.8453 10.6486C14.2103 2.23771 5.787 12.6512 3.15474 18.9094C0.52256 21.3126 1.18049 22.9144 1.83848 23.4149L4.47079 24.9169L3.15465 26.4187C1.04882 28.2211 6.66436 31.175 9.73536 32.4266C19.2116 36.0312 27.7226 31.4252 30.7936 28.6717C37.6376 22.0631 31.013 13.9027 26.8453 10.6486Z" fill="url(#paint0_linear_383_3132)"/>
<path d="M13.5622 31.5835C10.1991 30.1315 11.0396 33.7606 12.7215 35.9384C14.0071 37.6032 15.5242 37.632 16.085 37.3901C19.4481 35.9381 16.0849 32.7931 13.5622 31.5835Z" fill="#F47D40"/>
<path d="M17.5 11.5222C21.3721 11.1713 21.9364 17.3958 18.0642 17.7468C21.9364 17.3958 22.7586 23.5968 18.6284 23.9711" stroke="#F47D40" stroke-linecap="round" stroke-linejoin="round"/>
<path d="M18.625 23.971C22.4971 23.62 23.0614 29.8445 19.1892 30.1953" stroke="#F47D40" stroke-linecap="round" stroke-linejoin="round"/>
<path d="M25 15.1196C28.638 14.9648 28.878 20.6052 25.24 20.76C28.878 20.6052 29.3606 26.2353 25.48 26.4005" stroke="#F47D40" stroke-linecap="round" stroke-linejoin="round"/>
<g filter="url(#filter0_i_383_3132)">
<path d="M7.5 21.25C8.88071 21.25 10 19.8509 10 18.125C10 16.3991 8.88071 15 7.5 15C6.11929 15 5 16.3991 5 18.125C5 19.8509 6.11929 21.25 7.5 21.25Z" fill="white"/>
<path d="M6.875 21.25C7.91053 21.25 8.75 20.1307 8.75 18.75C8.75 17.3693 7.91053 16.25 6.875 16.25C5.83947 16.25 5 17.3693 5 18.75C5 20.1307 5.83947 21.25 6.875 21.25Z" fill="#2F2F2F"/>
</g>
<path d="M13.586 15C14.6132 17.5146 15.584 23.6182 11.25 27.9155" stroke="#F47D40" stroke-linecap="round" stroke-linejoin="round"/>
<path d="M16.7598 5.46009C16.0307 6.43168 14.5593 8.49918 14.5078 8.99652L27.2401 13.4598C30.0879 10.2365 29.1852 8.84424 28.3778 8.55101C23.5078 7.04023 19.8897 5.57549 18.6893 5.03198C17.7463 4.43142 17.0101 5.06716 16.7598 5.46009Z" fill="#72AF1A"/>
<path d="M38.75 17.5882C36.25 13.8379 32.0834 18.8382 30 21.9632C31.5 26.9633 34.375 28.2132 35.625 28.2131C39.625 28.2131 38.125 24.0464 36.875 21.9631C39.375 20.4631 39.375 18.8379 38.75 17.5882Z" fill="#72AF1A"/>
<path d="M35 20.625C33.125 20.625 31.4582 21.875 30 22.5C30.8332 23.3334 32.9999 24.5001 34.9999 25.0001" stroke="#4A7212" stroke-linecap="round" stroke-linejoin="round"/>
<path d="M26.8453 10.6486C14.2103 2.23771 5.787 12.6512 3.15474 18.9094C0.52256 21.3126 1.18049 22.9144 1.83848 23.4149L4.47079 24.9169L3.15465 26.4187C1.04882 28.2211 6.66436 31.175 9.73536 32.4266C19.2116 36.0312 27.7226 31.4252 30.7936 28.6717C37.6376 22.0631 31.013 13.9027 26.8453 10.6486Z" fill="url(#paint1_linear_383_3132)"/>
<path d="M13.5622 31.5835C10.1991 30.1315 11.0396 33.7606 12.7215 35.9384C14.0071 37.6032 15.5242 37.632 16.085 37.3901C19.4481 35.9381 16.0849 32.7931 13.5622 31.5835Z" fill="#72AF1A"/>
<path d="M17.5 11.5222C21.3721 11.1713 21.9364 17.3958 18.0642 17.7468C21.9364 17.3958 22.7586 23.5968 18.6284 23.9711" stroke="#62941C" stroke-linecap="round" stroke-linejoin="round"/>
<path d="M18.625 23.971C22.4971 23.62 23.0614 29.8445 19.1892 30.1953" stroke="#62941C" stroke-linecap="round" stroke-linejoin="round"/>
<path d="M25 15.1196C28.638 14.9648 28.878 20.6052 25.24 20.76C28.878 20.6052 29.3606 26.2353 25.48 26.4005" stroke="#6DA026" stroke-linecap="round" stroke-linejoin="round"/>
<g filter="url(#filter1_i_383_3132)">
<path d="M7.5 21.25C8.88071 21.25 10 19.8509 10 18.125C10 16.3991 8.88071 15 7.5 15C6.11929 15 5 16.3991 5 18.125C5 19.8509 6.11929 21.25 7.5 21.25Z" fill="white"/>
<path d="M6.875 21.25C7.91053 21.25 8.75 20.1307 8.75 18.75C8.75 17.3693 7.91053 16.25 6.875 16.25C5.83947 16.25 5 17.3693 5 18.75C5 20.1307 5.83947 21.25 6.875 21.25Z" fill="#2F2F2F"/>
</g>
<path d="M13.586 15C14.6132 17.5146 15.584 23.6182 11.25 27.9155" stroke="#62941C" stroke-linecap="round" stroke-linejoin="round"/>
<defs>
<filter id="filter0_i_383_3132" x="5" y="15" width="6" height="6.75" filterUnits="userSpaceOnUse" color-interpolation-filters="sRGB">
<feFlood flood-opacity="0" result="BackgroundImageFix"/>
<feBlend mode="normal" in="SourceGraphic" in2="BackgroundImageFix" result="shape"/>
<feColorMatrix in="SourceAlpha" type="matrix" values="0 0 0 0 0 0 0 0 0 0 0 0 0 0 0 0 0 0 127 0" result="hardAlpha"/>
<feOffset dx="1" dy="0.5"/>
<feGaussianBlur stdDeviation="0.5"/>
<feComposite in2="hardAlpha" operator="arithmetic" k2="-1" k3="1"/>
<feColorMatrix type="matrix" values="0 0 0 0 0.956863 0 0 0 0 0.490196 0 0 0 0 0.25098 0 0 0 1 0"/>
<feBlend mode="normal" in2="shape" result="effect1_innerShadow_383_3132"/>
</filter>
<filter id="filter1_i_383_3132" x="5" y="15" width="6" height="6.75" filterUnits="userSpaceOnUse" color-interpolation-filters="sRGB">
<feFlood flood-opacity="0" result="BackgroundImageFix"/>
<feBlend mode="normal" in="SourceGraphic" in2="BackgroundImageFix" result="shape"/>
<feColorMatrix in="SourceAlpha" type="matrix" values="0 0 0 0 0 0 0 0 0 0 0 0 0 0 0 0 0 0 127 0" result="hardAlpha"/>
<feOffset dx="1" dy="0.5"/>
<feGaussianBlur stdDeviation="0.5"/>
<feComposite in2="hardAlpha" operator="arithmetic" k2="-1" k3="1"/>
<feColorMatrix type="matrix" values="0 0 0 0 0.384314 0 0 0 0 0.588235 0 0 0 0 0.0862745 0 0 0 0.6 0"/>
<feBlend mode="normal" in2="shape" result="effect1_innerShadow_383_3132"/>
</filter>
<linearGradient id="paint0_linear_383_3132" x1="11.65" y1="13.125" x2="31.3423" y2="32.9119" gradientUnits="userSpaceOnUse">
<stop stop-color="#F8AC36"/>
<stop offset="1" stop-color="#F48C63"/>
</linearGradient>
<linearGradient id="paint1_linear_383_3132" x1="10.625" y1="9.99999" x2="25.4389" y2="34.9945" gradientUnits="userSpaceOnUse">
<stop stop-color="#619516"/>
<stop offset="0.627626" stop-color="#A4E73E"/>
<stop offset="0.890625" stop-color="#FFED91"/>
</linearGradient>
</defs>
</svg>
