<svg width="32" height="32" viewBox="0 0 32 32" fill="none" xmlns="http://www.w3.org/2000/svg">
<g clip-path="url(#clip0_5_1002)">
<path d="M19.044 4.668L8.68 15.3C8.49797 15.4868 8.3961 15.7372 8.3961 15.998C8.3961 16.2588 8.49797 16.5093 8.68 16.696L19.044 27.332C19.1288 27.4191 19.2302 27.4883 19.3422 27.5356C19.4541 27.5828 19.5744 27.6072 19.696 27.6072C19.8175 27.6072 19.9379 27.5828 20.0498 27.5356C20.1618 27.4883 20.2632 27.4191 20.348 27.332C20.5224 27.1534 20.6201 26.9137 20.6201 26.664C20.6201 26.4143 20.5224 26.1746 20.348 25.996L10.602 15.998L20.348 6.002C20.5218 5.8235 20.6191 5.58417 20.6191 5.335C20.6191 5.08583 20.5218 4.84651 20.348 4.668C20.2632 4.58092 20.1618 4.5117 20.0498 4.46444C19.9379 4.41717 19.8175 4.39282 19.696 4.39282C19.5744 4.39282 19.4541 4.41717 19.3422 4.46444C19.2302 4.5117 19.1288 4.58092 19.044 4.668V4.668Z" fill="white"/>
</g>
<defs>
<clipPath id="clip0_5_1002">
<rect width="32" height="32" fill="white"/>
</clipPath>
</defs>
</svg>
