<svg width="40" height="40" viewBox="0 0 40 40" fill="none" xmlns="http://www.w3.org/2000/svg">
<path d="M20 38.75C30.3553 38.75 38.75 30.3553 38.75 20C38.75 9.64466 30.3553 1.25 20 1.25C9.64466 1.25 1.25 9.64466 1.25 20C1.25 30.3553 9.64466 38.75 20 38.75Z" fill="url(#paint0_linear_383_3191)"/>
<path d="M20 35C28.2843 35 35 28.2843 35 20C35 11.7157 28.2843 5 20 5C11.7157 5 5 11.7157 5 20C5 28.2843 11.7157 35 20 35Z" fill="#A0AEB8"/>
<path d="M8.88211 12.1764C4.53394 14.5414 5.98323 21.163 10.2413 21.723C8.88196 29.6765 13.2302 33.9333 16.5221 35.4393V37.5H23.7691V35.4393C30.3398 31.6554 30.372 24.4031 29.5667 21.25C34.9715 19.744 34.9715 13.1224 30.533 11.7906C33.039 5.64191 26.7583 3.66294 24.2523 5.64191C21.9266 0.352129 15.1628 2.717 14.5895 5.64191C9.36525 4.13591 6.94957 8.39267 8.88211 12.1764Z" fill="url(#paint1_linear_383_3191)"/>
<path d="M10.5843 13.4666C6.61195 15.6844 7.93597 21.8941 11.826 22.4194C10.5842 29.8781 14.5566 33.8701 17.564 35.2824V37.5002H24.1846V35.2824C30.1873 31.734 30.2167 24.9329 29.4811 21.9759C34.4187 20.5635 34.4187 14.3537 30.3638 13.1047C32.6532 7.33857 26.9153 5.48268 24.626 7.33857C22.5013 2.37782 16.3221 4.59558 15.7985 7.33857C11.0257 5.92625 8.8188 9.91822 10.5843 13.4666Z" fill="url(#paint2_linear_383_3191)"/>
<path fill-rule="evenodd" clip-rule="evenodd" d="M21.1719 13.6536C21.6206 13.6536 21.9844 14.0173 21.9844 14.4661V31.2061C21.9844 31.6548 21.6206 32.0186 21.1719 32.0186C20.7231 32.0186 20.3594 31.6548 20.3594 31.2061V14.4661C20.3594 14.0173 20.7231 13.6536 21.1719 13.6536Z" fill="#FFD2A8"/>
<path d="M21.1719 21.8483C21.1719 21.3561 22.7824 17.9111 26.0033 18.8954" stroke="#FFD2A8" stroke-linecap="round" stroke-linejoin="round"/>
<path d="M21.1719 27.2611C21.1719 26.769 23.3191 23.4999 26.5401 24.4842" stroke="#FFD2A8" stroke-linecap="round" stroke-linejoin="round"/>
<path d="M21.1695 19.5631C21.1695 19.071 20.0959 15.626 16.875 16.6102" stroke="#FFD2A8" stroke-linecap="round" stroke-linejoin="round"/>
<path d="M21.1695 24.485C21.1695 23.9929 20.0959 20.5479 16.875 21.5321" stroke="#FFD2A8" stroke-linecap="round" stroke-linejoin="round"/>
<path d="M21.1695 30.3907C21.1695 29.8986 20.0959 26.4536 16.875 27.4379" stroke="#FFD2A8" stroke-linecap="round" stroke-linejoin="round"/>
<path d="M24.1238 22.3644C24.3906 22.3644 24.6069 22.1526 24.6069 21.8914C24.6069 21.6302 24.3906 21.4185 24.1238 21.4185C23.8569 21.4185 23.6406 21.6302 23.6406 21.8914C23.6406 22.1526 23.8569 22.3644 24.1238 22.3644Z" fill="#5EB450"/>
<path d="M24.1238 22.3644C24.3906 22.3644 24.6069 22.1526 24.6069 21.8914C24.6069 21.6302 24.3906 21.4185 24.1238 21.4185C23.8569 21.4185 23.6406 21.6302 23.6406 21.8914C23.6406 22.1526 23.8569 22.3644 24.1238 22.3644Z" fill="#5EB450"/>
<path d="M14.4597 19.5275C14.7265 19.5275 14.9428 19.3157 14.9428 19.0545C14.9428 18.7933 14.7265 18.5815 14.4597 18.5815C14.1929 18.5815 13.9766 18.7933 13.9766 19.0545C13.9766 19.3157 14.1929 19.5275 14.4597 19.5275Z" fill="#5EB450"/>
<path d="M14.4597 19.5275C14.7265 19.5275 14.9428 19.3157 14.9428 19.0545C14.9428 18.7933 14.7265 18.5815 14.4597 18.5815C14.1929 18.5815 13.9766 18.7933 13.9766 19.0545C13.9766 19.3157 14.1929 19.5275 14.4597 19.5275Z" fill="#5EB450"/>
<path d="M16.3972 12.9052C16.664 12.9052 16.8803 12.6934 16.8803 12.4322C16.8803 12.171 16.664 11.9592 16.3972 11.9592C16.1304 11.9592 15.9141 12.171 15.9141 12.4322C15.9141 12.6934 16.1304 12.9052 16.3972 12.9052Z" fill="#5EB450"/>
<path d="M16.3972 12.9052C16.664 12.9052 16.8803 12.6934 16.8803 12.4322C16.8803 12.171 16.664 11.9592 16.3972 11.9592C16.1304 11.9592 15.9141 12.171 15.9141 12.4322C15.9141 12.6934 16.1304 12.9052 16.3972 12.9052Z" fill="#5EB450"/>
<path d="M16.3972 30.8788C16.664 30.8788 16.8803 30.667 16.8803 30.4058C16.8803 30.1446 16.664 29.9329 16.3972 29.9329C16.1304 29.9329 15.9141 30.1446 15.9141 30.4058C15.9141 30.667 16.1304 30.8788 16.3972 30.8788Z" fill="#5EB450"/>
<path d="M16.3972 30.8788C16.664 30.8788 16.8803 30.667 16.8803 30.4058C16.8803 30.1446 16.664 29.9329 16.3972 29.9329C16.1304 29.9329 15.9141 30.1446 15.9141 30.4058C15.9141 30.667 16.1304 30.8788 16.3972 30.8788Z" fill="#5EB450"/>
<path d="M25.0925 15.7433C25.3593 15.7433 25.5756 15.5316 25.5756 15.2703C25.5756 15.0091 25.3593 14.7974 25.0925 14.7974C24.8257 14.7974 24.6094 15.0091 24.6094 15.2703C24.6094 15.5316 24.8257 15.7433 25.0925 15.7433Z" fill="#5EB450"/>
<path d="M25.0925 15.7433C25.3593 15.7433 25.5756 15.5316 25.5756 15.2703C25.5756 15.0091 25.3593 14.7974 25.0925 14.7974C24.8257 14.7974 24.6094 15.0091 24.6094 15.2703C24.6094 15.5316 24.8257 15.7433 25.0925 15.7433Z" fill="#5EB450"/>
<path d="M9.47213 23.7645C9.65969 23.1002 9.27314 22.4095 8.60874 22.222C7.94435 22.0344 7.25372 22.421 7.06616 23.0853C6.87861 23.7497 7.26516 24.4404 7.92955 24.6279C8.59394 24.8155 9.28458 24.4289 9.47213 23.7645Z" fill="#FF402E"/>
<path d="M6.37278 20.9405C6.46656 20.6083 6.27329 20.263 5.94109 20.1692C5.6089 20.0754 5.26358 20.2687 5.1698 20.6009C5.07602 20.9331 5.2693 21.2784 5.60149 21.3722C5.93369 21.466 6.27901 21.2727 6.37278 20.9405Z" fill="#FF402E"/>
<path d="M31.3728 28.4405C31.4666 28.1083 31.2733 27.763 30.9411 27.6692C30.6089 27.5754 30.2636 27.7687 30.1698 28.1009C30.076 28.4331 30.2693 28.7784 30.6015 28.8722C30.9337 28.966 31.279 28.7727 31.3728 28.4405Z" fill="#FF402E"/>
<defs>
<linearGradient id="paint0_linear_383_3191" x1="20" y1="1.25" x2="20" y2="38.75" gradientUnits="userSpaceOnUse">
<stop stop-color="#D7E6F0"/>
<stop offset="1" stop-color="#A5C3DC"/>
</linearGradient>
<linearGradient id="paint1_linear_383_3191" x1="20" y1="2.5" x2="20" y2="37.8041" gradientUnits="userSpaceOnUse">
<stop stop-color="#C82A1A"/>
<stop offset="0.395833" stop-color="#E04E42"/>
<stop offset="0.848958" stop-color="#CA774D"/>
<stop offset="1" stop-color="#E6A96D"/>
</linearGradient>
<linearGradient id="paint2_linear_383_3191" x1="20.7412" y1="4.39208" x2="20.7412" y2="37.5002" gradientUnits="userSpaceOnUse">
<stop stop-color="#FF351F"/>
<stop offset="0.395833" stop-color="#FC5950"/>
<stop offset="0.848958" stop-color="#F59666"/>
<stop offset="1" stop-color="#FFC183"/>
</linearGradient>
</defs>
</svg>
